<?xml version="1.0" encoding="utf-8"?>
<!-- Generator: Adobe Illustrator 24.1.2, SVG Export Plug-In . SVG Version: 6.00 Build 0)  -->
<svg version="1.1" id="Ebene_1" xmlns="http://www.w3.org/2000/svg" xmlns:xlink="http://www.w3.org/1999/xlink" x="0px" y="0px"
	 viewBox="0 0 1366 768" style="enable-background:new 0 0 1366 768;" xml:space="preserve">
<style type="text/css">
	.st0{fill:#FF0000;}
</style>
<g>
	<g>
		<path d="M134.77,282.18h39.79v71.9h0.98l52.46-71.9h43.73l-53.24,70.24l63.02,105.74h-43.63l-42.78-74.35l-20.54,27.18v47.16
			h-39.79V282.18z"/>
		<path d="M344.1,282.18h47.6l55.27,175.98h-42.11l-23.02-89.12c-4.89-17.6-9.59-38.4-14.29-56.76h-1.08
			c-4.26,18.58-8.96,39.17-13.85,56.76l-23.12,89.12h-40.68L344.1,282.18z M325.27,385.32h84.67v30.92h-84.67V385.32z"/>
		<path d="M455.77,435.95l22.85-27.3c12.52,10.89,28.75,18.39,43.23,18.39c16.61,0,24.73-6.54,24.73-16.98
			c0-11.08-10-14.64-25.38-20.96l-22.87-9.75c-18.23-7.42-35.51-22.4-35.51-47.97c0-29.16,26.05-52.45,62.68-52.45
			c20.27,0,41.46,7.99,56.61,23.06l-20.08,25.07c-11.59-8.89-22.62-13.78-36.53-13.78c-13.72,0-22.45,5.71-22.45,15.78
			c0,10.79,11.51,14.72,26.87,20.83l22.42,9.08c21.49,8.69,34.91,23,34.91,47.87c0,29.23-24.37,54.54-66.3,54.54
			C498.05,461.4,473.72,452.72,455.77,435.95z"/>
		<path class="st0" d="M613.41,437.42c0-13.51,9.75-23.92,22.89-23.92s22.89,10.41,22.89,23.92c0,13.42-9.75,23.83-22.89,23.83
			S613.41,450.84,613.41,437.42z"/>
		<path class="st0" d="M692.69,418.38V277.41h37.92v142.52c0,8.14,3.76,10.72,6.86,10.72c1.46,0,2.49,0,4.64-0.52l4.52,27.97
			c-4.19,1.79-10.42,3.16-19.04,3.16C701.58,461.25,692.69,444.28,692.69,418.38z"/>
		<path class="st0" d="M764.56,291.61c0-11.63,9.23-19.83,21.95-19.83s21.95,8.2,21.95,19.83c0,11.54-9.23,19.83-21.95,19.83
			S764.56,303.15,764.56,291.61z M767.51,330.16h37.93v128h-37.93V330.16z"/>
		<path class="st0" d="M826.15,330.16h38.11l16.66,60.42c3.28,12.72,6.65,25.95,9.92,39.34h1.03c3.28-13.39,6.65-26.62,9.92-39.34
			l16.66-60.42h36.32l-41.76,128h-43.72L826.15,330.16z"/>
		<path class="st0" d="M968.27,394.2c0-41.52,29.63-67.14,60.38-67.14c36.46,0,54.52,26.5,54.52,61.44c0,6.83-0.85,13.66-1.58,16.76
			h-76.57c3.4,18.57,16.12,27.09,33.2,27.09c9.68,0,18.39-2.94,27.68-8.38l12.54,22.86c-13.11,9.08-30.24,14.42-45.41,14.42
			C996.53,461.25,968.27,436.57,968.27,394.2z M1050.77,380.18c0-14.07-6.13-24.21-21.27-24.21c-11.98,0-22.33,8.04-24.91,24.21
			H1050.77z"/>
	</g>
</g>
<circle class="st0" cx="1185.5" cy="384.5" r="73.5"/>
</svg>
